<svg width="24" height="24" viewBox="0 0 24 24" fill="none" xmlns="http://www.w3.org/2000/svg">
<path d="M10.104 12.46H7.836V14.788H6.252V12.46H3.984V10.996H6.252V8.668H7.836V10.996H10.104V12.46ZM12.6239 14.104C13.3919 13.464 14.0039 12.932 14.4599 12.508C14.9159 12.076 15.2959 11.628 15.5999 11.164C15.9039 10.7 16.0559 10.244 16.0559 9.796C16.0559 9.388 15.9599 9.068 15.7679 8.836C15.5759 8.604 15.2799 8.488 14.8799 8.488C14.4799 8.488 14.1719 8.624 13.9559 8.896C13.7399 9.16 13.6279 9.524 13.6199 9.988H11.9879C12.0199 9.028 12.3039 8.3 12.8399 7.804C13.3839 7.308 14.0719 7.06 14.9039 7.06C15.8159 7.06 16.5159 7.304 17.0039 7.792C17.4919 8.272 17.7359 8.908 17.7359 9.7C17.7359 10.324 17.5679 10.92 17.2319 11.488C16.8959 12.056 16.5119 12.552 16.0799 12.976C15.6479 13.392 15.0839 13.896 14.3879 14.488H17.9279V15.88H11.9999V14.632L12.6239 14.104Z" fill="#B5B5B5"/>
<circle cx="12" cy="12" r="11.5" stroke="#B5B5B5"/>
</svg>
